/* XPM */
static char *CsAIkon[] = {
/* width height num_colors chars_per_pixel */
"    78   112       11            1",
/* colors */
". c #000000",
"# c #00a800",
"a c #00a8a8",
"b c #a80000",
"c c #a85400",
"d c #a8a8a8",
"e c #545454",
"f c #54fc54",
"g c #fc5454",
"h c #fcfc54",
"i c #fcfcfc",
/* pixels */
"ddeeeeeeedddccdee.dddihihihhhdhihihihiheeedddddddddhhdhhdddchihihihihihihihbbe",
"eedeeeeeeddeee#ee#eeihihddihihihidddihdeedihddddddddddeeceehihihihihiddhihdeee",
"eeeeedddeddeddeee.cchddihihihihhhhhdcceddddddddddddddceecihdhihihihihihihidbbe",
"ddeeeeddcccdbbdee#dddddhihidddihdddcddddddccdiidhhcddedddhihihihihihihihdddeee",
"ddedddeeeccdeeeeeebbdddihiddddhideedhhhdddddddddccedddhihihihihihihihhhidddeee",
"dddeeeddeddeeedddeeeiddhhhihhdddeeeddddddddddcceeebdddihihihihihihihhhiddddeee",
"ddeddeeedeedccdeeebbddddhihddedddddcdddddddddddeeedihdhihddihihihihihihiggdcce",
"ddddddeeeddeddceeebbihhddddeeeihddddhhcdddeeheedddihihihihhhihihidihidddihieee",
"ddieedeedeeecceee#eediiiddcdddhiddddcccdddeeeccdhihihihidihihihihihhdihiddhbbe",
"ddddddddddddeec##ddddddddddccdddddddhhdddeccdddhihihihihihhhhhdhihddihihihi..c",
"dddeedeedeedddeeeeeedddeeedddhcchhhhhheccbddhihihihihihihihihihihdhihihhhhh..e",
"dddeedeeeeedeedeeeccedddddddddddddddccebbhihdhihhhihihihihihihdddhihihihihibbe",
"dddeeeeedddeddeddecceeedhhdcchhhdddeccbddihihihihhhihihihihihihddhhhhihdhideee",
"ddiiiiddiiiidddddeeeeeedddhddhddfeebdddhihihhhihihhhihihidddhhihihihhhihihdeee",
"iidiidiiidddiiddddeedffddddhhdddceedddhihihhhihihihddihihihdhihihihihhhdhiheee",
"iiiiiiiiiiiiiiiiiihicdddhhdhhdeeeddhihihihihihihihihihihiddhihiddhihihhhddieee",
"iidiidiiidddiiiiiddddddddddeeeeehihhhihihhhihihihihihidddihhhihihihidihihihcce",
"iiihihihihihddidddccddddccecccihdhihihihihihihihihidddddihihihhhhhihiddhddieee",
"dddihddddihiddhdddddccceeeeddihihihihihhhihihihihihddhhihihihihihhhhhddihihccb",
"ccceee##fddehhdeeddddccceeeddhihhhhhihihihihihihihihihihihihihihihihiddhihieee",
".....###bccc..cee###c..chidihihhhihihihihihihihidddihihihihhhihihihihhhihideee",
"eee..c##.##............dihihhhhhihihihhhihihihidihihihihihihddihidihihihihieec",
"dddeeeddeeeeeeeee...e..dhhhihhddhddihihihihhhddihihihihidhhihihihihihihihiheee",
"ddddddeeeeeeeedeee.....gihihihihihihihihihihihihihdhihihihihihihihihihidihidde",
"eeddddddeddeddeddedde..ghihihihihhhihihihihihihihihihihihihihihihihihihihiheed",
"ddedddiheeeeeeeeedeedbbdihihihihihihihihihihhhihihihihihihihihihihihihihihiddb",
"ddiddddddddeeeddddddebbdhihihihihhhhhihihihihihihihihhhihihihihihihihihdhiheee",
"eeddddccdeedcceeedeeeccdddihihihihihddihihihihihihihihihihihihihihihihihihidde",
"ddedddddeddddddddedddccdddhihhhhdddhhihhhihihihihidihihihihihihihihihihhhihdde",
"dddeeddddeedeedeeeeed..cddihihihdhihihihihihihihihihihihihihihihihihihihihieee",
"eeiddedd#ddeddceeeddd##ghihihihihihihihihihihihihihihihhhihihihihihihihihiheee",
"dddddddddddddddddeeed##cihihihddidddihihihihihihihihihhhihihihihihihihihihieee",
"eeeeeddd#dddeedeedeeeeecdddddidddiidiidihihihihihihihihihihihihhhihidihihiheec",
"cceeedcceffedddddeddeeedihiiiihhddddddiiihihihihihihihihihihihihihihihihihidde",
"ee#aaeeeddddeedeeeeedeecdddddeddbccbbbcccdiihihihihihihihihihidhhdhidihihiheee",
"dddeeeee#ccc##eeeddddeeedddeeecc.ccceecbbgiiihihihihihihihihihiddhddihihihieeb",
"ffddddhfdeeeeeecc#ccceedddecc...beeddddbbbhhiihihihihihihihihihihihihihiddheee",
"ddfdddddfdddddfdddddeccbeebeebbbcddiiidggbggihihihihihhhdhihhhihihddihihihieee",
"fffffdddfddfddfffdddddde..bbb.eediigiiiiidbbgihiddhihihihihihihihdhihihihiheec",
"fffddfdddfffdddfffdddeebbbgbbbcciddiiidiidbbgiihihihihihihihihiddhihihihihdeee",
"dddfffddfffdfffffdddc..bgggbbbiihiiiiiiiiibbbihihihihihihihdhihihiddhihihiheee",
"fffddfffdfffffddddcc.bbgggg..bggiddiiiiiiiddbiihihihihihihihihihihihihihihidde",
"ddfffffffdddfffddgcc.ggggggbbbdddiidiidddiiieggihihihihihihihihihihihihihiheee",
"ffdddfffffffffdddb..bggggggbbbddiiihiiiiiidddiidihihihihihihihihihddihihihidde",
"ffdfffffdddddddggbbbggggggg..biiiddiiiiiiiiidggiddhihihihddihhhihihihihihihdde",
"fffddffffdddddfddebbggggggg..ciiiiiiiiidddddiggiihihihihihihihihhhihihihihidde",
"ddddddfffdddddfbb.bbgggggggbbbiidddiiiibbddddbbdiihihihihihihihihihihihiddhddb",
"fffffffffddffffbb.gggggggggbbbiiidddddiccciiiddeddihihhhhhihihihihhhihihddeccc",
"ddffffddcfffdddcc.gggggggggbbciidddeiii..bddiggciiiihihihihiddhihihihihicccccd",
"fffffddddddfffdeebgggggggggbbeiiidd#ccdccbdddggeeeihihihihihihihihiiiddd##b##d",
"fffddedddddffffbbbgggggggggbbbggiddeccdddcbbiiibcccihihihihihihihihiiddebbdddh",
"ffdeefddddddfffccbgggggggggbbeggdiiebbcddecciiicbb.ddhihihihihihihiideecddhddc",
"ffdffdddddddfffccbgggggggggcceiiiiideeciibccdiigee.cciddhihihihihdddcccgddcddc",
"ffdddddddddfffdccbggggggggggg.iiidddbbbdddccdiidggi##cdddhihihihideeehhdffdhhe",
"eedddfdddfffffdeebbbgggggggggbggiiiiccedddeedddgcciddc##hihihhhddecccddddddddd",
"ddddddfffddfffieebbbgggggggggbddidddcceddidddiidccidddbbghihddieeecceddcddcddd",
"dddddfddddddddieebcciggeggidd.ddgiiiddcdddiiieedbbdihihi.ccdddeeebeehccdccceed",
"ddfddddddffdfffddbbbd...ggdggbgggddidddiiddddeedbbihihihi..cccccccdddhhcdddiih",
"ddfddfdddddfffiddbbbe..bggdggbbbdiiiiiiiiiiiiccibbeddiddhcc.cccddddddddcdddiii",
"ffffffffdddfddiiiebb.ggbgggggbccdiidddiiiiiideeibbdddhihdeee..ccccdddddcihdhih",
"ddffffddddddffdddd..bgggggbggbbbiggdcciiiidddddgbbdihidddddddd#eehccccchhihihi",
"fffffffffffdddddde..bddggggddbbbeddiccdddiiieeeibbgddddd#eeeddbcceddcddhihihih",
"ddfffddddfffffdee.eebiigggbccbbbcggibbciideebggibbcdddcceddheeb##deehihihihihi",
"ddffffffddddccc..bddbddggggbbebb.ggdddbcccbbbiid..ceeeccdccdee.icdiiiiihihihih",
"dddddfffdddddd#bbcddbddggggbbbbbbddddde..c..cddd..ceeecchfffdd.ieeddhihiddhihi",
"ffdffdffdffdcc.dddddebbebbbbbbbbbeeddddddcdddddd..eccdddchhdee.iibddihihihihih",
"fffddffffddd...dddddebbbbbbbbbggbccddddddiddiddbbbeccdddcddeeebiibhihdddhihihi",
"ffdddfffdddc..cdddffdbbbbbbbbbbbc..biiiiiddddiiebbbddddddddeeeiiicihihihihihih",
"ffdffddddee.ccdddfffdbbbeecbbbbbbbbbggdiiidddddb..cdddccdeeeeeiiicddhihihihihh",
"dddddfeee..bdddddfdddcc.eebbbbbbbbb.ccbdddddddd.bb.bbddddddeeiiiihddihihihihih",
"dddffdee#..cdddddfffdddbbbbbbbbbbbbb..cddihhidd.bb.eedddeddediiiidhidddihihihi",
"dddddcee.eeddddddddddddc..bbbbeebbbb...dddddd..bggc..#ccdddecceiihihihihihihih",
"dddffdddc..cffdddddddddd..beebbbb..cbb...c###bbccccdd.eedddceebihihihihhhihihi",
"dddddddddeeb..cddddddffdbb.eebbbb...........bcccddcdddbbcddeeegdddihihihhhhhih",
"ddfddfffdddecc.eedccfdddeeb..ebbbbb...b...bbcccdddcccdeebddcccdgghhihihihhhihh",
"dddffddddddddde...cccccfddd......bbb.....bdddffd##eiiidd.hihihdhhdihihihihihhh",
"ddfdddddddddddfddd...eecdddccb...bb.bbc...cccccfeedddiddbddddddihihihddihihihi",
"ddddddddddddddddddbb.ccccccddbbb....cc#.....cffcccdddddd.ddhihihihihihihihihih",
"ddfdddddddddddfddddde###bbceeeee.cceddccc....eedddidddddeggihihihdhihhhihihihi",
"ffddddddfdddddfdddiiddde..cbbceedeeccccddhcc...edddddhihgddhddihidihihihihihih",
"ddcddddddddddddddddddddebbceibccceec##cdddee...cgghihiddddddhihihghidihdhihihi",
"eeceedddddddddfdddddd##dcceicdbbeeeccccddddddbbdeeihihihdbbdddiddddddhihihihih",
"eeeeebeeceeeeebeeecceeebcceiii..eeecccedd#ddhihbbbdihihihbbdhihihiddhihihihihi",
"eeddddddeeeecceeeecceeee..cbibccceecccdeehihihib..hddhhhiccddddeedihihiiihihih",
"gigigfdddddddddeeceeeccc..beeecc.eeccccccdddhdde..edddhiheebhihdddhihihiiihihi",
"hgdghgdddghgddddddddddddeeceiciebcc.ccedddddhddd..ehihihieecihihihihidddihihih",
"gigigigigddigigiiddddddeeebcieie.eeccceddddddihd..cddihidddbdddddihihdddiihihi",
"hghghghghghgddhghgdddghdeeediiiecddedddddhihiggd##eddhihiddbihiddhihiddehhihih",
"gigigigigigigifddidddddiddeiiiiceddedddeedhihihieebdddddhddehhhddddddiidddhihi",
"hghghghghghghghghghghghgddeiiiieeeeehhdgghddddddbb.hihhhdhieddihiddddiidddihih",
"gigigdgidigigigigigigigigiedddgideeeddfihihihddibb.ddihiddddeehddgiiiiiieehihi",
"hghghghghddghghghghgdghghggdddhgdddedddddhihhddhdd.dddihdddhccedddiiiiiieedhih",
"ddgigigidigdgigigigigigigidigigigeedddhihidddihdhibbbdddiiiibbcddiddiiiieehihi",
"hghghghghddghghghghghghghgdghgddhddedddhihddghidiheccdhhdiid..ciiiiiiddeccihih",
"gigigigigddigigigigigigigigigigigeeedddihidddihdhid..diiiiiebbgddddddcccddhihi",
"hghghghgdghghghghghghghghghghdhghddeddihihihiddhihdcccddiddeeeceeceediiiihihih",
"ddgddigigigigigigdgigigiddgigfdddddeeeddddddhihhhideecdddddceeceecddhihihihihi",
"hghghghghghghghghghghghggghghgffdddeccdhidihihidihieebdddiidihdhihihihihihihih",
"gigigigigigigigigigidigigidigidddddeccfihdhihihdhihee#cccihihihihihidihihihihi",
"hghghdhghghgdddddghggghghghghgdddddeeefddhihihihdddee.ddbdddihihihihihihihihih",
"gigigigigigigigddigigddigigddigigggcccdihhhihihihihee#dddeedddhihihihihihihihi",
"gghghghghghghghghdhghghghghddghghddceeddddihihihihdccbddicceihidddihihihihihih",
"gigigigigigigigigigigigigigigdgigigeccgggihihdddddhddciiiddchihihiddhihihihhhi",
"hghghghghffghghghdhghghghghddghghghebbiddhihihihihiddeiiiiidhhihhdihihihihihih",
"gigigigigigdgigddigigigigigigigidigdccddddhihihihidddchihiiiccdihihihihhhihihi",
"hghghdhghghghghghgddhghghgdghghghghdeeifhhddihihihiddeddidddeedhihihihihihihih",
"gigigdgigigigigddigidigigigigigifigdccdihdddhihihihihedddddiiieddihihihihihhhi",
"hghghghghghdhgdghghgdghghghghghgdghdeeddddihihihihihidbbdhiiddccchihihihihihih",
"gigigigigigigigigigigigigigigiddgigdeefihdhihdddhihihdeedddd##bhhdhihihihihihi",
"gghghdhghghdhghghghghddghghghghgdghdbbfddhihiddhihihidccccccddihihihihihihihih",
"gidigiddgddiddgigigigigigigigfgigigdeefihihihddiddhddiddhihdhihihihidihihihihi",
"dddghgdddggdiidddghghghghghghdhghghgeedddhihihidihihihhhihihihihihihihihihihih"
};
                                                                                                           