/* XPM */
static char *O1[] = {
/* width height num_colors chars_per_pixel */
"    35    35       11            1",
/* colors */
". c #000000",
"# c #0000a8",
"a c #00a8a8",
"b c #a80000",
"c c #a8a8a8",
"d c #545454",
"e c #5454fc",
"f c #54fcfc",
"g c #fc5454",
"h c #fcfc54",
"i c #fcfcfc",
/* pixels */
"...................................",
"...................................",
"...................................",
"...................................",
"...................................",
"............gggggggggggggg.........",
"...........ggggggggggggggggg.......",
"..........gggggiiiiiiiiggggg.......",
".........gggiiiiiiiiiiiiigggg......",
".........ggiiiiiiiiiiiiiiigggg.....",
"........gggiiiiiiiiiiiiiiiiggg.....",
"........gggiiiiiiiiiiiiiiiiiggg....",
".......gggiiiiiiiiiiiiiiiiiiggg....",
".......ggg......iiiiiii......ggg...",
".......g.......................g...",
".......g..........iii.......i..g...",
"......cgg.........iii..iiii...ggcc.",
".....ccgggi......iiiii......igggccc",
"....ccddggiiiiiiiiiiiiiiiiiiiggg...",
"...cc..ddddc.iiiiiiiiiiiiiiiigdccc.",
"..cc...ccdcc.d.........i..iiigdgcdc",
".cc...cdcdcccd.i.ii.iii.i.iiggd.ddc",
"..cc..dcdcdcddi..ii.ii...iiiggdcccd",
"...cc..cccccdiiii.....iiiigiggdcccc",
"....cc..cccccdiiiiiiiiiiiiggggdcccc",
"....c.c..ccccdiiiiiiiiiiigggggdccc.",
"...c.c.c.ccccdggiiiiiiigggggg..cc..",
"...c.c.c..ccgggggggggggggggg.......",
".............ggggggggggggg.........",
"...................................",
"...................................",
"...................................",
"...................................",
"...................................",
"..................................."
};
