/* XPM */
static char *O2[] = {
/* width height num_colors chars_per_pixel */
"    35    35       11            1",
/* colors */
". c #000000",
"# c #0000a8",
"a c #00a8a8",
"b c #a80000",
"c c #a8a8a8",
"d c #545454",
"e c #5454fc",
"f c #54fcfc",
"g c #fc5454",
"h c #fcfc54",
"i c #fcfcfc",
/* pixels */
"...................................",
"...................................",
"...................................",
"...................................",
"...................................",
"............ggggggggggggggg........",
"....c......ggggggggggggggggg......c",
"..ccc.....gggggiiiiiggggggggg.....c",
".cccc....ggggiiiiiiiiiigggggg....cc",
".cccd..ccggiiiiiiiiiiiiigggdd....cc",
".cccc.ccggiiiiiiiiiiiiiiiggccdg.c.c",
".cc.ccc.ggiiiiiiiiiiiiiiigggggddc.c",
".d..cc.gggiiiii.....iiiiiggggggcc.d",
"....d..ggiiii........iiiiiggggggc..",
".......ggiii...iiii....iiiggggg....",
".......ggiii..iiiiiii..iiiggggg....",
".......ggiii.iiiiiiiiiiiiiggddg....",
"......cggiiiiiiiiiiiiiiiiiggdcd....",
"....dccggiiii..iiiii..iiiiggcgcdcc.",
"....ccdggiii....iii....iiiggggdcccc",
"..ddc..gggii....iii....iiggggggg.dc",
"..cc...gggii....iii....iigggggg...d",
".cc....gggiii..iiiii..iiigggggg....",
"...c....gggiiiiiiiiiiiiiggggggg...c",
"...c.....gggiiiiiiiiiiiigggggg...c.",
"...cc....dgggiiiiiiiiigggggggcccc..",
"....cc.c.ddgggiiiiiiidggggggg.cc...",
"....ccccc...ggggggggggggggg....cc..",
"......cc.c...gggggggggggggg...cc...",
"...................................",
"...................................",
"...................................",
"...................................",
"...................................",
"..................................."
};
