/* XPM */
static char *O3[] = {
/* width height num_colors chars_per_pixel */
"    35    35       11            1",
/* colors */
". c #000000",
"# c #0000a8",
"a c #00a8a8",
"b c #a80000",
"c c #a8a8a8",
"d c #545454",
"e c #5454fc",
"f c #54fcfc",
"g c #fc5454",
"h c #fcfc54",
"i c #fcfcfc",
/* pixels */
"...................................",
"...................................",
"...................................",
"...................................",
"...................................",
"...................................",
"...................................",
"...................................",
"..........................c........",
"......gggggggggggggggg...cc........",
"....ggggggggggggggggggggc..c.......",
"...ggggiiiiiiiiiiiiiigggg..c.......",
"..gggiiiiiiiiiiiiiiiiiiggg.c.......",
".gggiiiii.....iii...iiiiggg.c......",
".gggiiiidddddddiiii..iiiigg.c......",
".ggiiiiiiiiiiiiiiiii.iiiiiggc......",
".ggiiiiiiiiiiiiiiiii..iiiigg.c.....",
".ggiiiiiidddd.diiiii..iiiigccc.....",
".ggiiiiiddddd..iiii..iiiiiccc......",
".ggiiiiiidddddiii...iiiiidcdcc.....",
".gggiiiiiiiiiiiiiiiiiiiidcdgdccdccc",
".gggggiiiiiiiiiiiiiiiigdcdggdccdccc",
".gggggggggggggggggggggdcdggg.dc....",
"..gggggggggggggggggggdcdgggg.dc....",
"...ggggggggdccdgggggccdgggg...cc.cc",
"....gggggggdgcdggggggdgggg....ccccc",
"......gggggddcdggggggdgg.......cccc",
".........ggggcddgggggg...cccc......",
"...............cccccccccccccc......",
"...................................",
"...................................",
"...................................",
"...................................",
"...................................",
"..................................."
};
