/* XPM */
static char *O4[] = {
/* width height num_colors chars_per_pixel */
"    35    35       11            1",
/* colors */
". c #000000",
"# c #0000a8",
"a c #00a8a8",
"b c #a80000",
"c c #a8a8a8",
"d c #545454",
"e c #5454fc",
"f c #54fcfc",
"g c #fc5454",
"h c #fcfc54",
"i c #fcfcfc",
/* pixels */
"...................................",
"...................................",
"...................................",
"...................................",
"...................................",
"............gggggggggggggg.........",
"...........ggggggggggggggggg.......",
"..........gggggiiiiigggggggg.......",
".........gggiiiiiiiiiiigggggg......",
".........ggiiiiiiiiiiiiigggggg.....",
"........ggiiiiiiiiiiiiiiiggggg.....",
"........ggiiiiiiiiiiiiiiigggggg....",
".......gggiii.iiii..iiiiigggggg....",
".......ggiii...iii...iiiiigggggg...",
".......ggiii...iii...iiiiigggggg...",
".......ggiii...iii...iiiiigggggg...",
".......ggiii...iii...iiiiiggddgg...",
".......ggiiii.iiiii.iiiiiiggdcdg...",
".......ggiiiiiiiiiiiiiiiiiggcgcd...",
".......ggiii.iiiiiiii..iiiggggcc...",
"ccccc.cccgii..iiiii...iiiggggggccc.",
"cccc..cgcccci........iiiigggggg...c",
"cccc..ccccciiii....iiiiiigggggg....",
"ccc...cccgciiddiiiiiiiiiggccgg....c",
"cccd.dcccccddddddiiiiiiiggcgcg...c.",
"ccddcdcccdgddddddddiiddddddgccccc..",
"cc....cccddgggggdddddddggddcc.cc...",
"......cc....gggggddddddgggcc...cc..",
".............ggggggddggggg....cc...",
"...................................",
"...................................",
"...................................",
"...................................",
"...................................",
"..................................."
};
