/* XPM */
static char *X1[] = {
/* width height num_colors chars_per_pixel */
"    35    35       11            1",
/* colors */
". c #000000",
"# c #0000a8",
"a c #00a8a8",
"b c #a80000",
"c c #a8a8a8",
"d c #545454",
"e c #5454fc",
"f c #54fcfc",
"g c #fc5454",
"h c #fcfc54",
"i c #fcfcfc",
/* pixels */
"...................................",
"...................................",
"...................................",
"...................................",
"...................................",
"...................................",
"...................................",
"...................................",
".......ifif...............ff.f.....",
".......fifi......ff.......fffe.....",
"........efe.....ffff......efee.....",
"........fe...iee.ffee.....fee......",
"........eee..iiiaca.ii...eee.......",
".........eeeeeiiacaii.eeeee........",
"...........eeeiiacaiieeee..........",
"...............iccai...............",
"................aia................",
"................aii................",
"...............eicie...............",
"..............e#iia#e..............",
"..............#ee.#eeee............",
".............eee...eeeee...........",
"............ee#e...eeeee...........",
"...........eeee......eee...........",
"..........eeeee......eeee..........",
"..........ffee.......eieef.........",
"........fiiee........ffiffi........",
".......eifiie........iffii.........",
".....dfififie........iiifif........",
"...................................",
"...................................",
"...................................",
"...................................",
"...................................",
"..................................."
};
