/* XPM */
static char *X2[] = {
/* width height num_colors chars_per_pixel */
"    35    35       11            1",
/* colors */
". c #000000",
"# c #0000a8",
"a c #00a8a8",
"b c #a80000",
"c c #a8a8a8",
"d c #545454",
"e c #5454fc",
"f c #54fcfc",
"g c #fc5454",
"h c #fcfc54",
"i c #fcfcfc",
/* pixels */
"...................................",
"...................................",
"...................................",
"...................................",
"...................................",
"......................defifi.......",
"........................fifi.......",
".......................fii.........",
".......................fff.........",
".................ff...fee..........",
"................ffff..ee...........",
"..............ee.ff..ee............",
".............eeeaca.ee.............",
"............eeeeacaee..............",
"...........ee...acaee..............",
".........eee....ccae...............",
"........eee.....aia................",
".......eee......aii................",
"........fee....eicie...............",
".........feffie#iia#e..............",
"..........fffi#ee.#eee.............",
"...........fiee#....eeee...........",
"............ee#......eee...........",
"...........eee.......#ee...........",
"..........eeee.......#eee..........",
"..........ff#........#ieef.........",
"........fii#.........ffiffi........",
".......eifii.........iffii.........",
".....dfififie........iiifif........",
"...................................",
"...................................",
"...................................",
"...................................",
"...................................",
"..................................."
};
