/* XPM */
static char *X4[] = {
/* width height num_colors chars_per_pixel */
"    35    35       11            1",
/* colors */
". c #000000",
"# c #0000a8",
"a c #00a8a8",
"b c #a80000",
"c c #a8a8a8",
"d c #545454",
"e c #5454fc",
"f c #54fcfc",
"g c #fc5454",
"h c #fcfc54",
"i c #fcfcfc",
/* pixels */
"...................................",
"...................................",
"...................................",
"...................................",
"...................................",
".....ddfifie..........defifi.......",
".......effif............fifi.......",
".........iif...........fii.........",
"..........eef..........fff.........",
"..........eef....ff...fee..........",
"...........ee...ffff..ee...........",
"............ee...ff..ee............",
".............ee.aca.ee.............",
"..............eeacaee..............",
"..............eeacaee..............",
"................ccae...............",
"................aia................",
"................aii................",
"...............eicie...............",
"..............e#iia#e..............",
"..............###.###..............",
".............e##....ee.............",
"............ee#......ee............",
"...........ee#.......#ee...........",
"..........ee##.......##ee..........",
"..........ff##.......##fff.........",
"........fii#..........##ifif.......",
".......eifii..........#ififii......",
".....dfififie.........eefifiid.....",
"...................................",
"...................................",
"...................................",
"...................................",
"...................................",
"..................................."
};
